# xmcd
#
# Track frame offsets: 
#        150
#        12485
#        26237
#        40060
#        50675
#        61495
#        78510
#        89090
#        101345
#        116280
#        129817
#        144292
#        157135
#        170192
#        184912
#        199980
#        213080
#        223102
#        234337
#        249332
#        264342
#        274672
#
# Disc length: 3863 seconds
#
# Revision: 5
# Processed by: cddbd v1.5.2PL0 Copyright (c) Steve Scherf et al.
# Submitted via: ExactAudioCopy v0.95b4
#
DISCID=3d0f1516
DTITLE=George Jones - The Essential George Jones: The Spirit Of Countr
DTITLE=y [CD2]
DYEAR=1998
DGENRE=Country
TTITLE0=The Door
TTITLE1=These Days (I Barely Get By)
TTITLE2=Golden Ring
TTITLE3=Her Name Is
TTITLE4=Near You (with Tammy Wynette)
TTITLE5=Bartender's Blues (with James Taylor)
TTITLE6=Maybelline (with Johnny Paycheck)
TTITLE7=Two Story House (with Tammy Wynette)
TTITLE8=He Stopped Loving Her Today
TTITLE9=I'm Not Ready Yet
TTITLE10=If Drinkin' Don't Kill Me (Her Memory Will)
TTITLE11=Still Doin' Time
TTITLE12=Same Ole Me
TTITLE13=Yesterday's Wine (with Merle Haggard)
TTITLE14=I Always Get Lucky With You
TTITLE15=Tennessee Whiskey
TTITLE16=We Didn't See A Thing (with Ray Charles and featuring Chet Atki
TTITLE16=ns)
TTITLE17=She's My Rock
TTITLE18=Who's Gonna Fill Their Shoes
TTITLE19=Wine Colored Roses
TTITLE20=I'm A One Woman Man
TTITLE21=The King Is Gone (So Are You)
EXTD=YEAR: 2001
EXTT0=
EXTT1=
EXTT2=With Tammy Wynette
EXTT3=
EXTT4=With Tammy Wynette
EXTT5=With James Taylor
EXTT6=With Johnny Paycheck
EXTT7=With Tammy Wynette
EXTT8=
EXTT9=
EXTT10=
EXTT11=
EXTT12=
EXTT13=With Merle Haggard
EXTT14=
EXTT15=
EXTT16=With Ray Charles and Chet Atkins
EXTT17=
EXTT18=
EXTT19=
EXTT20=
EXTT21=
PLAYORDER=
